<svg width="40" height="40" viewBox="0 0 40 40" fill="none" xmlns="http://www.w3.org/2000/svg">
<rect width="40" height="40" rx="5" fill="#252525"/>
<path d="M24.039 26.8985C24.0966 26.9521 24.1428 27.0168 24.1748 27.0887C24.2068 27.1605 24.224 27.2381 24.2254 27.3168C24.2268 27.3955 24.2123 27.4736 24.1829 27.5466C24.1534 27.6196 24.1095 27.6858 24.0539 27.7415C23.9983 27.7971 23.932 27.841 23.859 27.8704C23.7861 27.8999 23.7079 27.9144 23.6293 27.913C23.5506 27.9116 23.473 27.8944 23.4011 27.8624C23.3292 27.8303 23.2646 27.7842 23.2109 27.7266L15.3984 19.9141C15.2887 19.8042 15.2271 19.6553 15.2271 19.5C15.2271 19.3448 15.2887 19.1958 15.3984 19.086L23.2109 11.2735C23.322 11.17 23.4689 11.1136 23.6207 11.1163C23.7725 11.119 23.9173 11.1805 24.0247 11.2878C24.132 11.3952 24.1935 11.54 24.1962 11.6918C24.1989 11.8436 24.1425 11.9905 24.039 12.1016L16.6416 19.5L24.039 26.8985Z" fill="white"/>
</svg>
