<svg width="40" height="40" viewBox="0 0 40 40" fill="none" xmlns="http://www.w3.org/2000/svg">
<rect width="40" height="40" rx="5" fill="#252525"/>
<path d="M16.961 26.8985C16.9034 26.9521 16.8572 27.0168 16.8252 27.0887C16.7932 27.1605 16.776 27.2381 16.7746 27.3168C16.7732 27.3955 16.7877 27.4736 16.8171 27.5466C16.8466 27.6196 16.8905 27.6858 16.9461 27.7415C17.0017 27.7971 17.068 27.841 17.141 27.8704C17.2139 27.8999 17.2921 27.9144 17.3707 27.913C17.4494 27.9116 17.527 27.8944 17.5989 27.8624C17.6708 27.8303 17.7354 27.7842 17.7891 27.7266L25.6016 19.9141C25.7113 19.8042 25.7729 19.6553 25.7729 19.5C25.7729 19.3448 25.7113 19.1958 25.6016 19.086L17.7891 11.2735C17.678 11.17 17.5311 11.1136 17.3793 11.1163C17.2275 11.119 17.0827 11.1805 16.9753 11.2878C16.868 11.3952 16.8065 11.54 16.8038 11.6918C16.8011 11.8436 16.8575 11.9905 16.961 12.1016L24.3584 19.5L16.961 26.8985Z" fill="white"/>
</svg>
