<svg width="376" height="310" viewBox="0 0 376 310" fill="none" xmlns="http://www.w3.org/2000/svg">
<rect width="237.862" height="391" transform="matrix(0 1 1 0 0 72.1387)" fill="#F66F6F"/>
<path fill-rule="evenodd" clip-rule="evenodd" d="M391 47.5236H374.708C358.417 47.5236 325.833 47.5236 293.25 38.0189C260.667 28.5142 228.083 9.50472 195.5 9.50472C162.917 9.50472 130.333 28.5142 97.75 30.0983C65.1667 31.6824 32.5834 15.8412 16.2917 7.9206L5.10216e-05 0V76.0378H16.2917C32.5834 76.0378 65.1667 76.0378 97.75 76.0378C130.333 76.0378 162.917 76.0378 195.5 76.0378C228.083 76.0378 260.667 76.0378 293.25 76.0378C325.833 76.0378 358.417 76.0378 374.708 76.0378H391V47.5236Z" fill="#F66F6F"/>
</svg>
