<svg width="684" height="851" viewBox="0 0 684 851" fill="none" xmlns="http://www.w3.org/2000/svg">
<rect x="159.17" width="524.83" height="851" fill="#F66F6F"/>
<path fill-rule="evenodd" clip-rule="evenodd" d="M104.858 851V815.542C104.858 780.083 104.858 709.167 83.8868 638.25C62.9151 567.333 20.9717 496.417 20.9717 425.5C20.9717 354.583 62.9151 283.667 66.4104 212.75C69.9057 141.833 34.9528 70.9167 17.4764 35.4584L0 2.47955e-05H167.774V35.4584C167.774 70.9167 167.774 141.833 167.774 212.75C167.774 283.667 167.774 354.583 167.774 425.5C167.774 496.417 167.774 567.333 167.774 638.25C167.774 709.167 167.774 780.083 167.774 815.542V851H104.858Z" fill="#F66F6F"/>
</svg>
