<svg width="266" height="63" viewBox="0 0 266 63" fill="none" xmlns="http://www.w3.org/2000/svg">
<g filter="url(#filter0_d_237_376)">
<rect x="4" width="258" height="55" rx="5" fill="#FFFFF0"/>
<path d="M231.293 31.8561C231.25 31.8997 231.215 31.9514 231.192 32.0083C231.168 32.0652 231.156 32.1262 231.156 32.1878C231.156 32.2494 231.168 32.3103 231.192 32.3672C231.215 32.4241 231.25 32.4759 231.293 32.5194C231.337 32.563 231.389 32.5975 231.446 32.6211C231.503 32.6446 231.564 32.6568 231.625 32.6568C231.687 32.6568 231.748 32.6446 231.805 32.6211C231.862 32.5975 231.913 32.563 231.957 32.5194L236.644 27.8319C236.688 27.7884 236.722 27.7367 236.746 27.6798C236.77 27.6229 236.782 27.5619 236.782 27.5003C236.782 27.4387 236.77 27.3777 236.746 27.3208C236.722 27.2639 236.688 27.2122 236.644 27.1686L231.957 22.4811C231.869 22.3932 231.75 22.3437 231.625 22.3438C231.501 22.3438 231.381 22.3932 231.293 22.4811C231.206 22.5691 231.156 22.6884 231.156 22.8128C231.156 22.9372 231.206 23.0564 231.293 23.1444L235.65 27.5003L231.293 31.8561Z" fill="black"/>
<path d="M204.003 23.2727V32H202.793L198.357 25.5994H198.276V32H196.959V23.2727H198.178L202.618 29.6818H202.699V23.2727H204.003ZM208.642 32.1321C207.998 32.1321 207.442 31.9943 206.976 31.7188C206.513 31.4403 206.155 31.0497 205.902 30.5469C205.652 30.0412 205.527 29.4489 205.527 28.7699C205.527 28.0994 205.652 27.5085 205.902 26.9972C206.155 26.4858 206.507 26.0866 206.959 25.7997C207.414 25.5128 207.945 25.3693 208.553 25.3693C208.922 25.3693 209.28 25.4304 209.627 25.5526C209.973 25.6747 210.284 25.8665 210.56 26.1278C210.836 26.3892 211.053 26.7287 211.212 27.1463C211.371 27.5611 211.451 28.0653 211.451 28.6591V29.1108H206.248V28.1562H210.202C210.202 27.821 210.134 27.5241 209.998 27.2656C209.861 27.0043 209.669 26.7983 209.422 26.6477C209.178 26.4972 208.891 26.4219 208.561 26.4219C208.203 26.4219 207.891 26.5099 207.624 26.6861C207.36 26.8594 207.155 27.0866 207.01 27.3679C206.868 27.6463 206.797 27.9489 206.797 28.2756V29.0213C206.797 29.4588 206.874 29.831 207.027 30.1378C207.184 30.4446 207.401 30.679 207.679 30.8409C207.958 31 208.283 31.0795 208.655 31.0795C208.897 31.0795 209.117 31.0455 209.316 30.9773C209.515 30.9062 209.686 30.8011 209.831 30.6619C209.976 30.5227 210.087 30.3509 210.164 30.1463L211.37 30.3636C211.273 30.7187 211.1 31.0298 210.85 31.2969C210.603 31.5611 210.292 31.767 209.917 31.9148C209.544 32.0597 209.12 32.1321 208.642 32.1321ZM213.718 25.4545L215.162 28.0028L216.62 25.4545H218.013L215.972 28.7273L218.03 32H216.637L215.162 29.554L213.692 32H212.294L214.331 28.7273L212.32 25.4545H213.718ZM222.377 25.4545V26.4773H218.801V25.4545H222.377ZM219.76 23.8864H221.034V30.0781C221.034 30.3253 221.071 30.5114 221.145 30.6364C221.219 30.7585 221.314 30.8423 221.431 30.8878C221.55 30.9304 221.679 30.9517 221.819 30.9517C221.921 30.9517 222.01 30.9446 222.087 30.9304C222.164 30.9162 222.223 30.9048 222.266 30.8963L222.496 31.9489C222.422 31.9773 222.317 32.0057 222.181 32.0341C222.044 32.0653 221.874 32.0824 221.669 32.0852C221.334 32.0909 221.022 32.0312 220.732 31.9062C220.442 31.7812 220.208 31.5881 220.029 31.3267C219.85 31.0653 219.76 30.7372 219.76 30.3423V23.8864Z" fill="#252525"/>
<path d="M32.9588 32V23.2727H36.0696C36.7486 23.2727 37.3111 23.3963 37.7571 23.6435C38.2031 23.8906 38.5369 24.2287 38.7585 24.6577C38.9801 25.0838 39.0909 25.5639 39.0909 26.098C39.0909 26.6349 38.9787 27.1179 38.7543 27.5469C38.5327 27.973 38.1974 28.3111 37.7486 28.5611C37.3026 28.8082 36.7415 28.9318 36.0653 28.9318H33.9261V27.8153H35.946C36.375 27.8153 36.723 27.7415 36.9901 27.5938C37.2571 27.4432 37.4531 27.2386 37.5781 26.9801C37.7031 26.7216 37.7656 26.4276 37.7656 26.098C37.7656 25.7685 37.7031 25.4759 37.5781 25.2202C37.4531 24.9645 37.2557 24.7642 36.9858 24.6193C36.7188 24.4744 36.3665 24.402 35.929 24.402H34.2756V32H32.9588ZM40.5323 32V25.4545H41.7638V26.4943H41.832C41.9513 26.142 42.1616 25.8651 42.4627 25.6634C42.7667 25.4588 43.1104 25.3565 43.494 25.3565C43.5735 25.3565 43.6673 25.3594 43.7752 25.3651C43.886 25.3707 43.9727 25.3778 44.0352 25.3864V26.6051C43.984 26.5909 43.8931 26.5753 43.7624 26.5582C43.6317 26.5384 43.5011 26.5284 43.3704 26.5284C43.0692 26.5284 42.8008 26.5923 42.565 26.7202C42.332 26.8452 42.1474 27.0199 42.011 27.2443C41.8746 27.4659 41.8065 27.7187 41.8065 28.0028V32H40.5323ZM47.7244 32.1321C47.0795 32.1321 46.5241 31.9943 46.0582 31.7188C45.5952 31.4403 45.2372 31.0497 44.9844 30.5469C44.7344 30.0412 44.6094 29.4489 44.6094 28.7699C44.6094 28.0994 44.7344 27.5085 44.9844 26.9972C45.2372 26.4858 45.5895 26.0866 46.0412 25.7997C46.4957 25.5128 47.027 25.3693 47.6349 25.3693C48.0043 25.3693 48.3622 25.4304 48.7088 25.5526C49.0554 25.6747 49.3665 25.8665 49.642 26.1278C49.9176 26.3892 50.1349 26.7287 50.294 27.1463C50.4531 27.5611 50.5327 28.0653 50.5327 28.6591V29.1108H45.3295V28.1562H49.2841C49.2841 27.821 49.2159 27.5241 49.0795 27.2656C48.9432 27.0043 48.7514 26.7983 48.5043 26.6477C48.2599 26.4972 47.973 26.4219 47.6435 26.4219C47.2855 26.4219 46.973 26.5099 46.706 26.6861C46.4418 26.8594 46.2372 27.0866 46.0923 27.3679C45.9503 27.6463 45.8793 27.9489 45.8793 28.2756V29.0213C45.8793 29.4588 45.956 29.831 46.1094 30.1378C46.2656 30.4446 46.483 30.679 46.7614 30.8409C47.0398 31 47.3651 31.0795 47.7372 31.0795C47.9787 31.0795 48.1989 31.0455 48.3977 30.9773C48.5966 30.9062 48.7685 30.8011 48.9134 30.6619C49.0582 30.5227 49.169 30.3509 49.2457 30.1463L50.4517 30.3636C50.3551 30.7187 50.1818 31.0298 49.9318 31.2969C49.6847 31.5611 49.3736 31.767 48.9986 31.9148C48.6264 32.0597 48.2017 32.1321 47.7244 32.1321ZM57.3583 25.4545L54.9847 32H53.6211L51.2433 25.4545H52.6112L54.2688 30.4915H54.337L55.9904 25.4545H57.3583ZM58.5558 32V25.4545H59.8299V32H58.5558ZM59.1992 24.4446C58.9776 24.4446 58.7873 24.3707 58.6282 24.223C58.4719 24.0724 58.3938 23.8935 58.3938 23.6861C58.3938 23.4759 58.4719 23.2969 58.6282 23.1491C58.7873 22.9986 58.9776 22.9233 59.1992 22.9233C59.4208 22.9233 59.6097 22.9986 59.766 23.1491C59.9251 23.2969 60.0046 23.4759 60.0046 23.6861C60.0046 23.8935 59.9251 24.0724 59.766 24.223C59.6097 24.3707 59.4208 24.4446 59.1992 24.4446ZM64.3011 32.1321C63.6875 32.1321 63.152 31.9915 62.6946 31.7102C62.2372 31.429 61.8821 31.0355 61.6293 30.5298C61.3764 30.0241 61.25 29.4332 61.25 28.7571C61.25 28.0781 61.3764 27.4844 61.6293 26.9759C61.8821 26.4673 62.2372 26.0724 62.6946 25.7912C63.152 25.5099 63.6875 25.3693 64.3011 25.3693C64.9148 25.3693 65.4503 25.5099 65.9077 25.7912C66.3651 26.0724 66.7202 26.4673 66.973 26.9759C67.2259 27.4844 67.3523 28.0781 67.3523 28.7571C67.3523 29.4332 67.2259 30.0241 66.973 30.5298C66.7202 31.0355 66.3651 31.429 65.9077 31.7102C65.4503 31.9915 64.9148 32.1321 64.3011 32.1321ZM64.3054 31.0625C64.7031 31.0625 65.0327 30.9574 65.294 30.7472C65.5554 30.5369 65.7486 30.2571 65.8736 29.9077C66.0014 29.5582 66.0653 29.1733 66.0653 28.7528C66.0653 28.3352 66.0014 27.9517 65.8736 27.6023C65.7486 27.25 65.5554 26.9673 65.294 26.7543C65.0327 26.5412 64.7031 26.4347 64.3054 26.4347C63.9048 26.4347 63.5724 26.5412 63.3082 26.7543C63.0469 26.9673 62.8523 27.25 62.7244 27.6023C62.5994 27.9517 62.5369 28.3352 62.5369 28.7528C62.5369 29.1733 62.5994 29.5582 62.7244 29.9077C62.8523 30.2571 63.0469 30.5369 63.3082 30.7472C63.5724 30.9574 63.9048 31.0625 64.3054 31.0625ZM72.9208 29.2855V25.4545H74.1992V32H72.9464V30.8665H72.8782C72.7276 31.2159 72.4862 31.5071 72.1538 31.7401C71.8242 31.9702 71.4137 32.0852 70.9222 32.0852C70.5018 32.0852 70.1296 31.9929 69.8058 31.8082C69.4847 31.6207 69.2319 31.3438 69.0472 30.9773C68.8654 30.6108 68.7745 30.1577 68.7745 29.6179V25.4545H70.0487V29.4645C70.0487 29.9105 70.1722 30.2656 70.4194 30.5298C70.6665 30.794 70.9876 30.9261 71.3825 30.9261C71.6211 30.9261 71.8583 30.8665 72.0941 30.7472C72.3327 30.6278 72.5302 30.4474 72.6864 30.206C72.8455 29.9645 72.9237 29.6577 72.9208 29.2855ZM80.8161 27.0526L79.6612 27.2571C79.6129 27.1094 79.5362 26.9687 79.4311 26.8352C79.3288 26.7017 79.1896 26.5923 79.0135 26.5071C78.8374 26.4219 78.6172 26.3793 78.353 26.3793C77.9922 26.3793 77.6911 26.4602 77.4496 26.6222C77.2081 26.7812 77.0874 26.9872 77.0874 27.2401C77.0874 27.4588 77.1683 27.6349 77.3303 27.7685C77.4922 27.902 77.7536 28.0114 78.1143 28.0966L79.1541 28.3352C79.7564 28.4744 80.2053 28.6889 80.5007 28.9787C80.7962 29.2685 80.9439 29.6449 80.9439 30.108C80.9439 30.5 80.8303 30.8494 80.603 31.1562C80.3786 31.4602 80.0646 31.6989 79.6612 31.8722C79.2607 32.0455 78.7962 32.1321 78.2678 32.1321C77.5348 32.1321 76.9368 31.9759 76.4737 31.6634C76.0107 31.348 75.7266 30.9006 75.6214 30.321L76.853 30.1335C76.9297 30.4545 77.0874 30.6974 77.326 30.8622C77.5646 31.0241 77.8757 31.1051 78.2592 31.1051C78.6768 31.1051 79.0107 31.0185 79.2607 30.8452C79.5107 30.669 79.6357 30.4545 79.6357 30.2017C79.6357 29.9972 79.5589 29.8253 79.4055 29.6861C79.255 29.5469 79.0234 29.4418 78.7109 29.3707L77.603 29.1278C76.9922 28.9886 76.5405 28.767 76.2479 28.4631C75.9581 28.1591 75.8132 27.7741 75.8132 27.3082C75.8132 26.9219 75.9212 26.5838 76.1371 26.294C76.353 26.0043 76.6513 25.7784 77.032 25.6165C77.4126 25.4517 77.8487 25.3693 78.3402 25.3693C79.0476 25.3693 79.6044 25.5227 80.0107 25.8295C80.4169 26.1335 80.6854 26.5412 80.8161 27.0526Z" fill="#252525"/>
<path d="M23.7065 31.8561C23.7501 31.8997 23.7846 31.9514 23.8082 32.0083C23.8318 32.0652 23.8439 32.1262 23.8439 32.1878C23.8439 32.2494 23.8318 32.3103 23.8082 32.3672C23.7846 32.4241 23.7501 32.4759 23.7065 32.5194C23.663 32.563 23.6113 32.5975 23.5544 32.6211C23.4975 32.6446 23.4365 32.6568 23.3749 32.6568C23.3133 32.6568 23.2523 32.6446 23.1954 32.6211C23.1385 32.5975 23.0868 32.563 23.0432 32.5194L18.3557 27.8319C18.3122 27.7884 18.2776 27.7367 18.254 27.6798C18.2304 27.6229 18.2183 27.5619 18.2183 27.5003C18.2183 27.4387 18.2304 27.3777 18.254 27.3208C18.2776 27.2639 18.3122 27.2122 18.3557 27.1686L23.0432 22.4811C23.1312 22.3932 23.2505 22.3437 23.3749 22.3438C23.4993 22.3438 23.6186 22.3932 23.7065 22.4811C23.7945 22.5691 23.8439 22.6884 23.8439 22.8128C23.8439 22.9372 23.7945 23.0564 23.7065 23.1444L19.3501 27.5003L23.7065 31.8561Z" fill="black"/>
<rect x="97" y="7" width="84" height="41" rx="5" fill="#F66F6F"/>
<g clip-path="url(#clip0_237_376)">
<path d="M146.252 16.2773C146.177 16.2373 146.093 16.2182 146.008 16.2223C145.924 16.2263 145.842 16.2532 145.771 16.3002L143.688 17.6865V16.2188C143.688 15.9701 143.589 15.7317 143.413 15.5558C143.237 15.38 142.999 15.2812 142.75 15.2812H133.375C133.126 15.2812 132.888 15.38 132.712 15.5558C132.536 15.7317 132.438 15.9701 132.438 16.2188V22.7812C132.438 23.0299 132.536 23.2683 132.712 23.4442C132.888 23.62 133.126 23.7188 133.375 23.7188H142.75C142.999 23.7188 143.237 23.62 143.413 23.4442C143.589 23.2683 143.688 23.0299 143.688 22.7812V21.3164L145.771 22.7057C145.848 22.7559 145.939 22.7822 146.031 22.7812C146.156 22.7812 146.275 22.7319 146.363 22.644C146.451 22.556 146.5 22.4368 146.5 22.3125V16.6875C146.499 16.6032 146.476 16.5205 146.432 16.4484C146.389 16.3762 146.327 16.3171 146.252 16.2773ZM142.75 22.7812H133.375V16.2188H142.75V22.7812ZM145.562 21.4365L143.688 20.1867V18.8133L145.562 17.5664V21.4365Z" fill="#FFFFF0"/>
</g>
<path d="M107.959 40V31.2727H109.276V38.8665H113.23V40H107.959ZM114.63 40V33.4545H115.904V40H114.63ZM115.273 32.4446C115.052 32.4446 114.862 32.3707 114.702 32.223C114.546 32.0724 114.468 31.8935 114.468 31.6861C114.468 31.4759 114.546 31.2969 114.702 31.1491C114.862 30.9986 115.052 30.9233 115.273 30.9233C115.495 30.9233 115.684 30.9986 115.84 31.1491C115.999 31.2969 116.079 31.4759 116.079 31.6861C116.079 31.8935 115.999 32.0724 115.84 32.223C115.684 32.3707 115.495 32.4446 115.273 32.4446ZM123.218 33.4545L120.844 40H119.48L117.103 33.4545H118.471L120.128 38.4915H120.196L121.85 33.4545H123.218ZM127.013 40.1321C126.369 40.1321 125.813 39.9943 125.347 39.7188C124.884 39.4403 124.526 39.0497 124.273 38.5469C124.023 38.0412 123.898 37.4489 123.898 36.7699C123.898 36.0994 124.023 35.5085 124.273 34.9972C124.526 34.4858 124.879 34.0866 125.33 33.7997C125.785 33.5128 126.316 33.3693 126.924 33.3693C127.293 33.3693 127.651 33.4304 127.998 33.5526C128.344 33.6747 128.656 33.8665 128.931 34.1278C129.207 34.3892 129.424 34.7287 129.583 35.1463C129.742 35.5611 129.822 36.0653 129.822 36.6591V37.1108H124.619V36.1562H128.573C128.573 35.821 128.505 35.5241 128.369 35.2656C128.232 35.0043 128.04 34.7983 127.793 34.6477C127.549 34.4972 127.262 34.4219 126.933 34.4219C126.575 34.4219 126.262 34.5099 125.995 34.6861C125.731 34.8594 125.526 35.0866 125.381 35.3679C125.239 35.6463 125.168 35.9489 125.168 36.2756V37.0213C125.168 37.4588 125.245 37.831 125.398 38.1378C125.555 38.4446 125.772 38.679 126.05 38.8409C126.329 39 126.654 39.0795 127.026 39.0795C127.268 39.0795 127.488 39.0455 127.687 38.9773C127.886 38.9062 128.058 38.8011 128.202 38.6619C128.347 38.5227 128.458 38.3509 128.535 38.1463L129.741 38.3636C129.644 38.7187 129.471 39.0298 129.221 39.2969C128.974 39.5611 128.663 39.767 128.288 39.9148C127.915 40.0597 127.491 40.1321 127.013 40.1321ZM136.14 35.0526L134.985 35.2571C134.937 35.1094 134.86 34.9687 134.755 34.8352C134.653 34.7017 134.514 34.5923 134.338 34.5071C134.162 34.4219 133.941 34.3793 133.677 34.3793C133.316 34.3793 133.015 34.4602 132.774 34.6222C132.532 34.7812 132.412 34.9872 132.412 35.2401C132.412 35.4588 132.493 35.6349 132.654 35.7685C132.816 35.902 133.078 36.0114 133.439 36.0966L134.478 36.3352C135.081 36.4744 135.529 36.6889 135.825 36.9787C136.12 37.2685 136.268 37.6449 136.268 38.108C136.268 38.5 136.154 38.8494 135.927 39.1562C135.703 39.4602 135.389 39.6989 134.985 39.8722C134.585 40.0455 134.12 40.1321 133.592 40.1321C132.859 40.1321 132.261 39.9759 131.798 39.6634C131.335 39.348 131.051 38.9006 130.946 38.321L132.177 38.1335C132.254 38.4545 132.412 38.6974 132.65 38.8622C132.889 39.0241 133.2 39.1051 133.583 39.1051C134.001 39.1051 134.335 39.0185 134.585 38.8452C134.835 38.669 134.96 38.4545 134.96 38.2017C134.96 37.9972 134.883 37.8253 134.73 37.6861C134.579 37.5469 134.348 37.4418 134.035 37.3707L132.927 37.1278C132.316 36.9886 131.865 36.767 131.572 36.4631C131.282 36.1591 131.137 35.7741 131.137 35.3082C131.137 34.9219 131.245 34.5838 131.461 34.294C131.677 34.0043 131.975 33.7784 132.356 33.6165C132.737 33.4517 133.173 33.3693 133.664 33.3693C134.372 33.3693 134.929 33.5227 135.335 33.8295C135.741 34.1335 136.01 34.5412 136.14 35.0526ZM140.724 33.4545V34.4773H137.149V33.4545H140.724ZM138.108 31.8864H139.382V38.0781C139.382 38.3253 139.419 38.5114 139.493 38.6364C139.567 38.7585 139.662 38.8423 139.778 38.8878C139.898 38.9304 140.027 38.9517 140.166 38.9517C140.268 38.9517 140.358 38.9446 140.435 38.9304C140.511 38.9162 140.571 38.9048 140.614 38.8963L140.844 39.9489C140.77 39.9773 140.665 40.0057 140.528 40.0341C140.392 40.0653 140.222 40.0824 140.017 40.0852C139.682 40.0909 139.369 40.0312 139.08 39.9062C138.79 39.7812 138.555 39.5881 138.376 39.3267C138.197 39.0653 138.108 38.7372 138.108 38.3423V31.8864ZM142.134 40V33.4545H143.365V34.4943H143.434C143.553 34.142 143.763 33.8651 144.064 33.6634C144.368 33.4588 144.712 33.3565 145.096 33.3565C145.175 33.3565 145.269 33.3594 145.377 33.3651C145.488 33.3707 145.574 33.3778 145.637 33.3864V34.6051C145.586 34.5909 145.495 34.5753 145.364 34.5582C145.233 34.5384 145.103 34.5284 144.972 34.5284C144.671 34.5284 144.402 34.5923 144.167 34.7202C143.934 34.8452 143.749 35.0199 143.613 35.2443C143.476 35.4659 143.408 35.7187 143.408 36.0028V40H142.134ZM149.326 40.1321C148.681 40.1321 148.126 39.9943 147.66 39.7188C147.197 39.4403 146.839 39.0497 146.586 38.5469C146.336 38.0412 146.211 37.4489 146.211 36.7699C146.211 36.0994 146.336 35.5085 146.586 34.9972C146.839 34.4858 147.191 34.0866 147.643 33.7997C148.097 33.5128 148.629 33.3693 149.237 33.3693C149.606 33.3693 149.964 33.4304 150.31 33.5526C150.657 33.6747 150.968 33.8665 151.244 34.1278C151.519 34.3892 151.737 34.7287 151.896 35.1463C152.055 35.5611 152.134 36.0653 152.134 36.6591V37.1108H146.931V36.1562H150.886C150.886 35.821 150.817 35.5241 150.681 35.2656C150.545 35.0043 150.353 34.7983 150.106 34.6477C149.862 34.4972 149.575 34.4219 149.245 34.4219C148.887 34.4219 148.575 34.5099 148.308 34.6861C148.043 34.8594 147.839 35.0866 147.694 35.3679C147.552 35.6463 147.481 35.9489 147.481 36.2756V37.0213C147.481 37.4588 147.558 37.831 147.711 38.1378C147.867 38.4446 148.085 38.679 148.363 38.8409C148.641 39 148.967 39.0795 149.339 39.0795C149.58 39.0795 149.8 39.0455 149.999 38.9773C150.198 38.9062 150.37 38.8011 150.515 38.6619C150.66 38.5227 150.771 38.3509 150.847 38.1463L152.053 38.3636C151.957 38.7187 151.783 39.0298 151.533 39.2969C151.286 39.5611 150.975 39.767 150.6 39.9148C150.228 40.0597 149.803 40.1321 149.326 40.1321ZM155.453 40.1449C155.038 40.1449 154.663 40.0682 154.328 39.9148C153.993 39.7585 153.727 39.5327 153.531 39.2372C153.338 38.9418 153.241 38.5795 153.241 38.1506C153.241 37.7812 153.312 37.4773 153.454 37.2386C153.596 37 153.788 36.8111 154.029 36.6719C154.271 36.5327 154.541 36.4276 154.839 36.3565C155.137 36.2855 155.441 36.2315 155.751 36.1946C156.143 36.1491 156.461 36.1122 156.706 36.0838C156.95 36.0526 157.127 36.0028 157.238 35.9347C157.349 35.8665 157.404 35.7557 157.404 35.6023V35.5724C157.404 35.2003 157.299 34.9119 157.089 34.7074C156.882 34.5028 156.572 34.4006 156.16 34.4006C155.731 34.4006 155.393 34.4957 155.146 34.6861C154.902 34.8736 154.733 35.0824 154.639 35.3125L153.441 35.0398C153.583 34.642 153.791 34.321 154.064 34.0767C154.339 33.8295 154.656 33.6506 155.014 33.5398C155.372 33.4261 155.748 33.3693 156.143 33.3693C156.404 33.3693 156.681 33.4006 156.974 33.4631C157.27 33.5227 157.545 33.6335 157.801 33.7955C158.059 33.9574 158.271 34.1889 158.436 34.4901C158.6 34.7884 158.683 35.1761 158.683 35.6534V40H157.439V39.1051H157.387C157.305 39.2699 157.181 39.4318 157.017 39.5909C156.852 39.75 156.64 39.8821 156.382 39.9872C156.123 40.0923 155.814 40.1449 155.453 40.1449ZM155.73 39.1222C156.082 39.1222 156.383 39.0526 156.633 38.9134C156.886 38.7741 157.078 38.5923 157.208 38.3679C157.342 38.1406 157.409 37.8977 157.409 37.6392V36.7955C157.363 36.8409 157.275 36.8835 157.145 36.9233C157.017 36.9602 156.87 36.9929 156.706 37.0213C156.541 37.0469 156.38 37.071 156.224 37.0938C156.068 37.1136 155.937 37.1307 155.832 37.1449C155.585 37.1761 155.359 37.2287 155.154 37.3026C154.953 37.3764 154.791 37.483 154.669 37.6222C154.549 37.7585 154.49 37.9403 154.49 38.1676C154.49 38.483 154.606 38.7216 154.839 38.8835C155.072 39.0426 155.369 39.1222 155.73 39.1222ZM160.38 40V33.4545H161.603V34.5199H161.684C161.82 34.1591 162.043 33.8778 162.353 33.6761C162.663 33.4716 163.033 33.3693 163.465 33.3693C163.903 33.3693 164.269 33.4716 164.565 33.6761C164.863 33.8807 165.083 34.1619 165.225 34.5199H165.293C165.45 34.1705 165.698 33.892 166.039 33.6847C166.38 33.4744 166.786 33.3693 167.258 33.3693C167.852 33.3693 168.336 33.5554 168.711 33.9276C169.089 34.2997 169.278 34.8608 169.278 35.6108V40H168.004V35.7301C168.004 35.2869 167.883 34.9659 167.641 34.767C167.4 34.5682 167.112 34.4688 166.776 34.4688C166.362 34.4688 166.039 34.5966 165.809 34.8523C165.579 35.1051 165.464 35.4304 165.464 35.8281V40H164.194V35.6491C164.194 35.294 164.083 35.0085 163.862 34.7926C163.64 34.5767 163.352 34.4688 162.996 34.4688C162.755 34.4688 162.532 34.5327 162.327 34.6605C162.126 34.7855 161.962 34.9602 161.837 35.1847C161.715 35.4091 161.654 35.669 161.654 35.9645V40H160.38Z" fill="#FFFFF0"/>
</g>
<defs>
<filter id="filter0_d_237_376" x="0" y="0" width="266" height="63" filterUnits="userSpaceOnUse" color-interpolation-filters="sRGB">
<feFlood flood-opacity="0" result="BackgroundImageFix"/>
<feColorMatrix in="SourceAlpha" type="matrix" values="0 0 0 0 0 0 0 0 0 0 0 0 0 0 0 0 0 0 127 0" result="hardAlpha"/>
<feOffset dy="4"/>
<feGaussianBlur stdDeviation="2"/>
<feComposite in2="hardAlpha" operator="out"/>
<feColorMatrix type="matrix" values="0 0 0 0 0 0 0 0 0 0 0 0 0 0 0 0 0 0 0.5 0"/>
<feBlend mode="normal" in2="BackgroundImageFix" result="effect1_dropShadow_237_376"/>
<feBlend mode="normal" in="SourceGraphic" in2="effect1_dropShadow_237_376" result="shape"/>
</filter>
<clipPath id="clip0_237_376">
<rect width="15" height="15" fill="white" transform="translate(131.5 12)"/>
</clipPath>
</defs>
</svg>
