<svg width="1440" height="447" viewBox="0 0 1440 447" fill="none" xmlns="http://www.w3.org/2000/svg">
<path d="M1486.87 200.583L1362.15 162.377C1244.17 126.237 1116.25 144.226 1012.82 211.501L992.443 224.751C959.526 246.16 922.678 260.805 884.044 267.83V267.83C814.049 280.559 741.812 267.645 680.562 231.454L548.463 153.399L487.036 121.203C337.552 42.8535 165.898 17.573 0.17279 49.5V49.5" stroke="#FA9F9F" stroke-opacity="0.3" stroke-width="15"/>
<path fill-rule="evenodd" clip-rule="evenodd" d="M1500.87 281.664L1450.38 263.601C1399.89 245.537 1298.91 209.41 1197.88 233.372C1096.86 257.334 995.799 325.547 894.773 349.509C793.747 373.471 692.764 337.344 591.795 283.191C490.826 229.037 389.87 156.857 288.883 126.739C187.897 96.6209 86.8793 108.565 36.3706 114.537L-14.1379 120.509L-14.374 444.989L36.1301 445.026C86.6345 445.063 187.643 445.136 288.652 445.21C389.66 445.283 490.669 445.357 591.677 445.431C692.686 445.504 793.694 445.578 894.703 445.651C995.711 445.725 1096.72 445.799 1197.73 445.872C1298.74 445.946 1399.75 446.019 1450.25 446.056L1500.75 446.093L1500.87 281.664Z" fill="url(#paint0_linear_398_25)" fill-opacity="0.3"/>
<defs>
<linearGradient id="paint0_linear_398_25" x1="743.436" y1="107.541" x2="743" y2="461.5" gradientUnits="userSpaceOnUse">
<stop offset="0.505208" stop-color="#FA9F9F"/>
<stop offset="1" stop-color="#FA9F9F" stop-opacity="0"/>
</linearGradient>
</defs>
</svg>
