<svg width="376" height="216" viewBox="0 0 376 216" fill="none" xmlns="http://www.w3.org/2000/svg">
<path d="M426 96.622L374.629 79.0989C322.269 61.2386 264.493 69.9729 219.752 102.513L210.501 109.241C196.921 119.117 181.38 125.964 164.926 129.318V129.318C134.512 135.519 102.879 129.414 76.9555 112.342L18.8897 74.101L-9.88776 57.2916C-72.9775 20.4397 -147.582 8.55306 -219 23.9739V23.9739" stroke="#FA9F9F" stroke-opacity="0.3" stroke-width="15"/>
<path fill-rule="evenodd" clip-rule="evenodd" d="M423 136.218L401.667 127.471C380.333 118.725 337.667 101.231 295 112.893C252.333 124.556 209.667 157.689 167 169.351C124.333 181.013 81.6667 163.52 39 137.28C-3.66669 111.04 -46.3333 76.0533 -89 61.4756C-131.667 46.8978 -174.333 52.7289 -195.667 55.6444L-217 58.56V216H-195.667C-174.333 216 -131.667 216 -89 216C-46.3333 216 -3.66669 216 39 216C81.6667 216 124.333 216 167 216C209.667 216 252.333 216 295 216C337.667 216 380.333 216 401.667 216H423L423 136.218Z" fill="url(#paint0_linear_398_19)" fill-opacity="0.3"/>
<defs>
<linearGradient id="paint0_linear_398_19" x1="103" y1="52" x2="103" y2="216" gradientUnits="userSpaceOnUse">
<stop offset="0.838542" stop-color="#FA9F9F"/>
<stop offset="1" stop-color="#FA9F9F" stop-opacity="0"/>
</linearGradient>
</defs>
</svg>
