<svg width="25" height="25" viewBox="0 0 25 25" fill="none" xmlns="http://www.w3.org/2000/svg">
<circle cx="12.5" cy="12.5" r="12.5" fill="white" fill-opacity="0.4"/>
<path d="M18.3735 9.46721L10.8735 16.9672C10.8075 17.033 10.7182 17.07 10.625 17.07C10.5319 17.07 10.4425 17.033 10.3766 16.9672L7.09533 13.686C7.03323 13.6193 6.99942 13.5312 7.00103 13.4401C7.00264 13.349 7.03953 13.2621 7.10395 13.1977C7.16836 13.1333 7.25526 13.0964 7.34634 13.0948C7.43742 13.0932 7.52556 13.127 7.59221 13.1891L10.625 16.2213L17.8766 8.97033C17.9432 8.90823 18.0314 8.87442 18.1225 8.87603C18.2135 8.87764 18.3004 8.91453 18.3648 8.97895C18.4293 9.04336 18.4662 9.13026 18.4678 9.22134C18.4694 9.31242 18.4356 9.40056 18.3735 9.46721Z" fill="black"/>
</svg>
