<svg width="57" height="57" viewBox="0 0 57 57" fill="none" xmlns="http://www.w3.org/2000/svg">
<path d="M54.7842 28.2842C54.7842 42.9197 42.9197 54.7842 28.2842 54.7842C13.6486 54.7842 1.78418 42.9197 1.78418 28.2842C1.78418 13.6486 13.6486 1.78418 28.2842 1.78418C42.9197 1.78418 54.7842 13.6486 54.7842 28.2842ZM3.4108 28.2842C3.4108 42.0214 14.547 53.1576 28.2842 53.1576C42.0214 53.1576 53.1576 42.0214 53.1576 28.2842C53.1576 14.547 42.0214 3.4108 28.2842 3.4108C14.547 3.4108 3.4108 14.547 3.4108 28.2842Z" fill="#FFFFF0"/>
<path d="M37.8302 18.7382C48.1791 29.0871 52.2947 41.7504 47.0226 47.0225C41.7505 52.2946 29.0872 48.179 18.7383 37.8301C8.38944 27.4812 4.27386 14.8179 9.54594 9.54586C14.818 4.27378 27.4813 8.38935 37.8302 18.7382ZM19.3243 37.2442C29.0379 46.9578 40.9239 50.8208 45.8724 45.8723C50.8209 40.9239 46.9579 29.0379 37.2443 19.3242C27.5306 9.61054 15.6446 5.74759 10.6961 10.6961C5.74767 15.6445 9.61062 27.5305 19.3243 37.2442Z" fill="#FFFFF0"/>
<path d="M18.7381 18.7382C8.38925 29.0871 4.27368 41.7504 9.54576 47.0225C14.8178 52.2946 27.4811 48.179 37.83 37.8301C48.1789 27.4812 52.2945 14.8179 47.0224 9.54586C41.7503 4.27378 29.087 8.38935 18.7381 18.7382ZM37.2441 37.2442C27.5304 46.9578 15.6444 50.8208 10.696 45.8723C5.74749 40.9239 9.61044 29.0379 19.3241 19.3242C29.0378 9.61054 40.9238 5.74759 45.8722 10.6961C50.8207 15.6445 46.9577 27.5305 37.2441 37.2442Z" fill="#FFFFF0"/>
<path d="M19.8379 31.9602C19.3026 31.9602 18.8589 31.8795 18.5069 31.7182C18.1623 31.5568 17.9056 31.3588 17.7369 31.1242C17.5756 30.8822 17.4949 30.6475 17.4949 30.4202C17.4949 30.2368 17.5463 30.0792 17.6489 29.9472C17.7516 29.8152 17.8946 29.7455 18.0779 29.7382C18.2319 29.7308 18.3493 29.7602 18.4299 29.8262C18.5179 29.8922 18.5766 29.9692 18.6059 30.0572C18.6426 30.1452 18.6609 30.2295 18.6609 30.3102C18.6609 30.3835 18.6499 30.4605 18.6279 30.5412C18.6059 30.6145 18.5729 30.6915 18.5289 30.7722C18.6023 30.9848 18.7563 31.1425 18.9909 31.2452C19.2256 31.3405 19.4786 31.3882 19.7499 31.3882C20.2486 31.3882 20.6409 31.2452 20.9269 30.9592C21.2129 30.6732 21.3559 30.2808 21.3559 29.7822C21.3559 29.4888 21.3046 29.2028 21.2019 28.9242C21.1066 28.6455 20.9269 28.4182 20.6629 28.2422C20.3989 28.0662 20.0176 27.9855 19.5189 28.0002C19.4603 28.0002 19.3869 28.0038 19.2989 28.0112C19.2109 28.0112 19.1303 28.0148 19.0569 28.0222V27.4282C19.1303 27.4282 19.1999 27.4282 19.2659 27.4282C19.3319 27.4282 19.3979 27.4282 19.4639 27.4282C19.8306 27.4282 20.1239 27.3512 20.3439 27.1972C20.5713 27.0432 20.7363 26.8525 20.8389 26.6252C20.9416 26.3905 20.9929 26.1595 20.9929 25.9322C21.0003 25.6462 20.9636 25.3932 20.8829 25.1732C20.8096 24.9458 20.6849 24.7698 20.5089 24.6452C20.3329 24.5132 20.0909 24.4472 19.7829 24.4472C19.4969 24.4472 19.2476 24.5205 19.0349 24.6672C18.8296 24.8138 18.6976 24.9678 18.6389 25.1292C18.7049 25.2098 18.7489 25.2942 18.7709 25.3822C18.8003 25.4628 18.8149 25.5398 18.8149 25.6132C18.8149 25.6792 18.7929 25.7598 18.7489 25.8552C18.7123 25.9432 18.6499 26.0165 18.5619 26.0752C18.4813 26.1338 18.3676 26.1632 18.2209 26.1632C18.0449 26.1632 17.9093 26.1008 17.8139 25.9762C17.7259 25.8515 17.6819 25.7012 17.6819 25.5252C17.6819 25.3125 17.7626 25.0815 17.9239 24.8322C18.0853 24.5828 18.3346 24.3665 18.6719 24.1832C19.0093 23.9998 19.4346 23.9082 19.9479 23.9082C20.3586 23.9082 20.7363 23.9705 21.0809 24.0952C21.4329 24.2198 21.7116 24.4252 21.9169 24.7112C22.1296 24.9898 22.2359 25.3638 22.2359 25.8332C22.2359 26.0458 22.1809 26.2695 22.0709 26.5042C21.9609 26.7388 21.7776 26.9552 21.5209 27.1532C21.2716 27.3512 20.9269 27.5125 20.4869 27.6372C21.1836 27.7252 21.7189 27.9598 22.0929 28.3412C22.4743 28.7152 22.6649 29.1698 22.6649 29.7052C22.6649 30.2038 22.5366 30.6218 22.2799 30.9592C22.0233 31.2892 21.6786 31.5385 21.2459 31.7072C20.8206 31.8758 20.3513 31.9602 19.8379 31.9602ZM26.3897 31.9602C25.7371 31.9602 25.2164 31.8062 24.8277 31.4982C24.4464 31.1902 24.1714 30.7538 24.0027 30.1892C23.8414 29.6245 23.7607 28.9572 23.7607 28.1872C23.7607 27.9305 23.7827 27.6188 23.8267 27.2522C23.8781 26.8855 23.9661 26.5115 24.0907 26.1302C24.2154 25.7415 24.3877 25.3785 24.6077 25.0412C24.8351 24.7038 25.1247 24.4325 25.4767 24.2272C25.8287 24.0145 26.2541 23.9082 26.7527 23.9082C27.2001 23.9082 27.5667 23.9888 27.8527 24.1502C28.1461 24.3042 28.3624 24.4912 28.5017 24.7112C28.6484 24.9238 28.7217 25.1292 28.7217 25.3272C28.7217 25.4958 28.6741 25.6425 28.5787 25.7672C28.4907 25.8918 28.3551 25.9615 28.1717 25.9762C27.9591 25.9762 27.8087 25.9138 27.7207 25.7892C27.6401 25.6645 27.5997 25.5472 27.5997 25.4372C27.5997 25.3638 27.6107 25.2868 27.6327 25.2062C27.6547 25.1182 27.6914 25.0375 27.7427 24.9642C27.6987 24.8468 27.5887 24.7295 27.4127 24.6122C27.2441 24.4875 27.0277 24.4288 26.7637 24.4362C26.4704 24.4435 26.2211 24.5278 26.0157 24.6892C25.8104 24.8432 25.6417 25.0485 25.5097 25.3052C25.3777 25.5545 25.2751 25.8295 25.2017 26.1302C25.1284 26.4308 25.0734 26.7242 25.0367 27.0102C25.0074 27.2962 24.9891 27.5492 24.9817 27.7692C25.0917 27.6298 25.2274 27.4978 25.3887 27.3732C25.5574 27.2485 25.7517 27.1458 25.9717 27.0652C26.1917 26.9845 26.4264 26.9442 26.6757 26.9442C27.1084 26.9368 27.4714 27.0065 27.7647 27.1532C28.0654 27.2925 28.3074 27.4832 28.4907 27.7252C28.6741 27.9598 28.8061 28.2275 28.8867 28.5282C28.9674 28.8215 29.0077 29.1222 29.0077 29.4302C29.0077 29.8922 28.8941 30.3175 28.6667 30.7062C28.4394 31.0875 28.1277 31.3918 27.7317 31.6192C27.3431 31.8465 26.8957 31.9602 26.3897 31.9602ZM26.4227 31.4212C26.7381 31.4212 26.9911 31.3405 27.1817 31.1792C27.3724 31.0105 27.5081 30.7942 27.5887 30.5302C27.6694 30.2662 27.7097 29.9838 27.7097 29.6832C27.7097 29.4925 27.6951 29.2762 27.6657 29.0342C27.6364 28.7922 27.5777 28.5612 27.4897 28.3412C27.4017 28.1138 27.2697 27.9305 27.0937 27.7912C26.9251 27.6445 26.7014 27.5712 26.4227 27.5712C26.2174 27.5712 26.0157 27.6188 25.8177 27.7142C25.6271 27.8095 25.4584 27.9378 25.3117 28.0992C25.1651 28.2605 25.0551 28.4328 24.9817 28.6162C24.9964 28.9388 25.0294 29.2652 25.0807 29.5952C25.1394 29.9178 25.2237 30.2185 25.3337 30.4972C25.4437 30.7685 25.5867 30.9922 25.7627 31.1682C25.9461 31.3368 26.1661 31.4212 26.4227 31.4212ZM32.9694 31.9602C32.412 31.9602 31.9464 31.8428 31.5724 31.6082C31.1984 31.3662 30.905 31.0508 30.6924 30.6622C30.4797 30.2662 30.3257 29.8335 30.2304 29.3642C30.1424 28.8948 30.0984 28.4292 30.0984 27.9672C30.0984 27.5052 30.1534 27.0358 30.2634 26.5592C30.3807 26.0825 30.5567 25.6462 30.7914 25.2502C31.026 24.8468 31.3267 24.5242 31.6934 24.2822C32.06 24.0328 32.5 23.9082 33.0134 23.9082C33.5487 23.9082 33.996 24.0292 34.3554 24.2712C34.722 24.5132 35.0154 24.8322 35.2354 25.2282C35.4554 25.6168 35.613 26.0458 35.7084 26.5152C35.8037 26.9845 35.8514 27.4502 35.8514 27.9122C35.8514 28.3668 35.7964 28.8325 35.6864 29.3092C35.5764 29.7858 35.404 30.2258 35.1694 30.6292C34.942 31.0252 34.645 31.3478 34.2784 31.5972C33.919 31.8392 33.4827 31.9602 32.9694 31.9602ZM33.0354 31.4102C33.336 31.4102 33.5817 31.3185 33.7724 31.1352C33.963 30.9518 34.1134 30.7025 34.2234 30.3872C34.3407 30.0718 34.4214 29.7198 34.4654 29.3312C34.5094 28.9425 34.5314 28.5465 34.5314 28.1432C34.5314 27.6958 34.5094 27.2558 34.4654 26.8232C34.4214 26.3832 34.3407 25.9835 34.2234 25.6242C34.1134 25.2648 33.9594 24.9788 33.7614 24.7662C33.5634 24.5535 33.3067 24.4472 32.9914 24.4472C32.698 24.4472 32.4487 24.5388 32.2434 24.7222C32.038 24.9055 31.873 25.1548 31.7484 25.4702C31.631 25.7855 31.543 26.1412 31.4844 26.5372C31.433 26.9258 31.4074 27.3255 31.4074 27.7362C31.4074 28.0442 31.4184 28.3668 31.4404 28.7042C31.4697 29.0415 31.5174 29.3715 31.5834 29.6942C31.6567 30.0168 31.752 30.3065 31.8694 30.5632C31.994 30.8198 32.1517 31.0252 32.3424 31.1792C32.533 31.3332 32.764 31.4102 33.0354 31.4102ZM38.5791 27.3732C38.2344 27.3732 37.9301 27.2962 37.6661 27.1422C37.4094 26.9882 37.2114 26.7792 37.0721 26.5152C36.9328 26.2512 36.8631 25.9578 36.8631 25.6352C36.8631 25.3125 36.9401 25.0228 37.0941 24.7662C37.2554 24.5022 37.4681 24.2932 37.7321 24.1392C38.0034 23.9852 38.2968 23.9082 38.6121 23.9082C38.9641 23.9082 39.2684 23.9852 39.5251 24.1392C39.7818 24.2932 39.9798 24.5022 40.1191 24.7662C40.2658 25.0228 40.3391 25.3125 40.3391 25.6352C40.3391 25.9578 40.2584 26.2512 40.0971 26.5152C39.9358 26.7792 39.7231 26.9882 39.4591 27.1422C39.1951 27.2962 38.9018 27.3732 38.5791 27.3732ZM38.6011 26.7352C38.8871 26.7352 39.1181 26.6252 39.2941 26.4052C39.4774 26.1852 39.5691 25.9285 39.5691 25.6352C39.5691 25.3418 39.4774 25.0852 39.2941 24.8652C39.1181 24.6378 38.8834 24.5242 38.5901 24.5242C38.3114 24.5242 38.0804 24.6378 37.8971 24.8652C37.7211 25.0852 37.6331 25.3418 37.6331 25.6352C37.6331 25.9285 37.7211 26.1852 37.8971 26.4052C38.0804 26.6252 38.3151 26.7352 38.6011 26.7352Z" fill="white"/>
</svg>
