<svg width="24" height="24" viewBox="0 0 24 24" fill="none" xmlns="http://www.w3.org/2000/svg">
<path d="M21.375 0.75H2.625C2.12772 0.75 1.65081 0.947544 1.29917 1.29917C0.947544 1.65081 0.75 2.12772 0.75 2.625V21.375C0.75 21.8723 0.947544 22.3492 1.29917 22.7008C1.65081 23.0525 2.12772 23.25 2.625 23.25H21.375C21.8723 23.25 22.3492 23.0525 22.7008 22.7008C23.0525 22.3492 23.25 21.8723 23.25 21.375V2.625C23.25 2.12772 23.0525 1.65081 22.7008 1.29917C22.3492 0.947544 21.8723 0.75 21.375 0.75ZM2.625 2.625H21.375V11.693L18.4816 8.79844C18.13 8.44707 17.6533 8.2497 17.1562 8.2497C16.6592 8.2497 16.1825 8.44707 15.8309 8.79844L3.2543 21.375H2.625V2.625ZM21.375 21.375H5.90625L17.1562 10.125L21.375 14.3438V21.375ZM8.25 11.0625C8.80626 11.0625 9.35003 10.8975 9.81254 10.5885C10.2751 10.2795 10.6355 9.84021 10.8484 9.3263C11.0613 8.81238 11.117 8.24688 11.0085 7.70131C10.8999 7.15574 10.6321 6.6546 10.2387 6.26126C9.8454 5.86793 9.34426 5.60006 8.79869 5.49154C8.25312 5.38302 7.68762 5.43872 7.1737 5.65159C6.65979 5.86446 6.22053 6.22495 5.91149 6.68746C5.60245 7.14997 5.4375 7.69374 5.4375 8.25C5.4375 8.99592 5.73382 9.71129 6.26126 10.2387C6.78871 10.7662 7.50408 11.0625 8.25 11.0625ZM8.25 7.3125C8.43542 7.3125 8.61668 7.36748 8.77085 7.4705C8.92502 7.57351 9.04518 7.71993 9.11614 7.89123C9.18709 8.06254 9.20566 8.25104 9.16949 8.4329C9.13331 8.61475 9.04402 8.7818 8.91291 8.91291C8.7818 9.04402 8.61475 9.13331 8.4329 9.16949C8.25104 9.20566 8.06254 9.18709 7.89123 9.11614C7.71993 9.04518 7.57351 8.92502 7.4705 8.77085C7.36748 8.61668 7.3125 8.43542 7.3125 8.25C7.3125 8.00136 7.41127 7.7629 7.58709 7.58709C7.7629 7.41127 8.00136 7.3125 8.25 7.3125Z" fill="white" />
</svg>
