<svg width="21" height="21" viewBox="0 0 21 21" fill="none" xmlns="http://www.w3.org/2000/svg">
<path d="M20.4278 19.3224L15.5382 14.4337C16.9554 12.7322 17.6621 10.5499 17.5113 8.34066C17.3604 6.13143 16.3637 4.06539 14.7284 2.57234C13.093 1.07929 10.9451 0.274177 8.73126 0.324489C6.51745 0.374802 4.40827 1.27666 2.84247 2.84247C1.27666 4.40827 0.374802 6.51745 0.324489 8.73126C0.274177 10.9451 1.07929 13.093 2.57234 14.7284C4.06539 16.3637 6.13143 17.3604 8.34066 17.5113C10.5499 17.6621 12.7322 16.9554 14.4337 15.5382L19.3224 20.4278C19.395 20.5004 19.4811 20.558 19.576 20.5973C19.6708 20.6366 19.7724 20.6568 19.8751 20.6568C19.9778 20.6568 20.0794 20.6366 20.1742 20.5973C20.2691 20.558 20.3552 20.5004 20.4278 20.4278C20.5004 20.3552 20.558 20.2691 20.5973 20.1742C20.6366 20.0794 20.6568 19.9778 20.6568 19.8751C20.6568 19.7724 20.6366 19.6708 20.5973 19.576C20.558 19.4811 20.5004 19.395 20.4278 19.3224ZM1.90635 8.9376C1.90635 7.54695 2.31873 6.18753 3.09133 5.03125C3.86393 3.87496 4.96206 2.97375 6.24686 2.44157C7.53165 1.90939 8.9454 1.77015 10.3093 2.04145C11.6733 2.31276 12.9261 2.98242 13.9094 3.96576C14.8928 4.94909 15.5624 6.20194 15.8337 7.56587C16.1051 8.9298 15.9658 10.3436 15.4336 11.6283C14.9015 12.9131 14.0002 14.0113 12.844 14.7839C11.6877 15.5565 10.3283 15.9689 8.9376 15.9689C7.07343 15.9668 5.28621 15.2253 3.96804 13.9072C2.64987 12.589 1.90842 10.8018 1.90635 8.9376Z" fill="black"/>
</svg>
