<svg width="30" height="18" viewBox="0 0 30 18" fill="none" xmlns="http://www.w3.org/2000/svg">
<path d="M29.4713 2.125C29.3118 2.03953 29.1321 1.99892 28.9514 2.0075C28.7707 2.01609 28.5956 2.07354 28.445 2.17375L24 5.13125V2C24 1.46957 23.7893 0.960859 23.4142 0.585786C23.0391 0.210714 22.5304 0 22 0H2C1.46957 0 0.960859 0.210714 0.585786 0.585786C0.210714 0.960859 0 1.46957 0 2V16C0 16.5304 0.210714 17.0391 0.585786 17.4142C0.960859 17.7893 1.46957 18 2 18H22C22.5304 18 23.0391 17.7893 23.4142 17.4142C23.7893 17.0391 24 16.5304 24 16V12.875L28.445 15.8388C28.6101 15.946 28.8032 16.002 29 16C29.2652 16 29.5196 15.8946 29.7071 15.7071C29.8946 15.5196 30 15.2652 30 15V3C29.9987 2.82007 29.949 2.64382 29.8559 2.48982C29.7628 2.33582 29.63 2.20979 29.4713 2.125ZM22 16H2V2H22V16ZM28 13.1313L24 10.465V7.535L28 4.875V13.1313Z" fill="white"/>
</svg>
