<svg width="46" height="46" viewBox="0 0 46 46" fill="none" xmlns="http://www.w3.org/2000/svg">
<path d="M3.42852 10.7238C3.42852 10.7238 0.783311 10.9188 0.430616 11.473C0.0738201 12.0273 0.0533145 12.8797 0.0533145 13.8162C0.0533145 14.7566 0.0123033 16.9125 0.0123033 16.9125L0.643873 18.1777C0.643873 18.1777 0.762805 34.3049 0.762805 34.8057C0.762805 35.3026 0.762805 35.9104 1.53381 36.2964C2.30482 36.6825 21.8999 45.5049 22.511 45.7419C23.4337 46.0974 23.8725 45.9636 23.8725 45.9636L45.6453 12.0235C45.6453 12.0235 45.5756 11.0946 44.6692 10.8729C44.1484 10.7506 3.42852 10.7238 3.42852 10.7238Z" fill="#F5B03E"/>
<path d="M23.6388 21.8817C23.3066 22.7342 23.4583 31.5489 23.5157 37.9592C23.5731 44.3658 23.3394 45.6922 23.5157 45.9139C23.6921 46.1356 24.1719 45.9215 25.5294 45.3596C28.0515 44.3199 40.1662 38.7314 41.0561 38.2345C41.9461 37.7375 44.1197 36.7093 44.4765 36.155C44.8333 35.6007 45.026 30.4442 45.1449 26.3044C45.2639 22.1608 45.3828 18.8467 45.3828 18.8467L45.916 17.3559C45.916 17.3559 45.8011 13.3269 45.7806 12.8835C45.7437 12.1496 45.6576 11.7712 45.4566 11.8629C45.1695 11.9891 42.7745 13.82 36.4342 16.6946C32.452 18.495 23.8684 21.2931 23.6388 21.8817Z" fill="#E07F14"/>
<path d="M23.6962 2.88001C21.9204 2.80356 17.0606 5.42198 12.3771 6.85543C7.69367 8.28887 0.623368 11.171 0.561851 11.3392C0.504436 11.5036 3.40802 12.7153 5.26172 13.5448C7.46401 14.5272 15.8713 18.2389 17.4092 18.8467C18.9512 19.4544 22.6258 20.8764 23.2163 20.8344C24.0448 20.7808 31.8697 17.9063 35.8395 16.1403C39.8094 14.3743 44.7717 11.6374 44.8374 10.9723C44.8661 10.6741 37.5374 8.1245 33.8833 6.58403C26.8294 3.60629 24.9962 2.93735 23.6962 2.88001Z" fill="#FDD717"/>
<path d="M0.0328088 17.6196C0.0943253 18.3383 0.516739 18.5944 1.59123 19.0301C2.66572 19.4659 22.9785 29.3012 23.446 29.3012C23.9135 29.3012 24.053 27.7417 23.5403 27.7837C23.2615 27.8066 16.589 24.8518 10.3553 21.9008C5.06486 19.4009 0 16.9048 0 16.9048L0.0328088 17.6196Z" fill="#E37D14"/>
<path d="M45.9201 17.3215C45.9201 17.3215 24.2293 27.604 24.0161 27.7034C23.8028 27.8028 23.4624 27.7684 23.4624 27.7684L23.446 29.3012C23.446 29.3012 23.647 29.3433 23.8725 29.2783C24.0038 29.2401 45.2926 18.969 45.3869 18.9384C45.4812 18.9078 45.8913 18.6785 45.9775 18.193C46.0513 17.8031 45.9201 17.3215 45.9201 17.3215Z" fill="#BA5E0D"/>
<path d="M8.5385 35.8339L12.7831 41.7206L14.6409 42.3131C14.6409 42.3131 14.7927 35.8913 14.8542 31.1322C14.9403 24.1791 14.9075 17.8375 15.0141 17.4782C15.1905 16.8704 23.446 14.3743 23.446 14.3743C23.446 14.3743 32.7719 17.0998 33.0672 17.7075C33.1984 17.9751 33.0959 22.478 33.0672 27.7264C33.0303 34.3546 33.0426 42.0073 33.0426 42.0073C33.0426 42.0073 34.0063 42.0035 34.1212 41.6709C34.2401 41.3383 34.7158 38.7734 34.7158 38.7734L38.333 16.3009L40.1703 14.0914L37.6194 9.56559L27.1534 4.76451L23.5567 5.51754L19.6648 4.96328L7.32047 13.2314L8.75996 15.953L12.291 17.6311L8.5385 35.8339Z" fill="#AF0F1B"/>
<path d="M34.1376 17.4744C33.912 17.9369 34.0433 41.7703 34.0433 41.7703C34.0433 41.7703 35.1711 41.1893 36.6228 40.5394C38.0664 39.8934 39.104 39.4921 39.1942 39.1557C39.2845 38.8193 39.4444 15.2497 39.4444 15.2497L34.1376 17.4744Z" fill="#F24545"/>
<path d="M13.6608 16.9813C13.7961 17.1189 13.5747 41.8506 13.2999 41.9079C13.0825 41.9576 8.14069 39.9011 8.14069 39.6908C8.14069 39.4806 8.5385 15.846 8.5385 15.846C8.5385 15.846 13.2589 16.5608 13.6608 16.9813ZM23.4542 4.04205C22.0885 4.04205 20.5793 4.40519 20.1405 5.47167C19.7017 6.53816 19.6033 8.1245 19.6033 9.30948C19.6033 10.4448 19.4064 13.3499 23.1589 13.304C26.9114 13.2581 27.0222 11.9623 27.0796 9.10306C27.1288 6.71781 26.7884 5.55959 26.448 5.06266C26.1445 4.61543 25.1357 4.04205 23.4542 4.04205Z" fill="#FF6868"/>
<path d="M21.2847 9.94402C22.1378 9.98989 22.5028 8.243 23.1589 7.28737C23.8151 6.33556 24.5 5.6972 24.2539 5.20028C24.053 4.78744 22.269 4.65366 21.3052 5.90362C20.6286 6.78662 20.5096 9.90197 21.2847 9.94402Z" fill="#FCC9D2"/>
<path d="M26.7761 4.87154C26.7761 4.87154 27.9859 6.01829 28.3017 8.26593C28.6175 10.5136 28.2525 12.2605 28.2525 12.2605C28.2525 12.2605 34.2647 12.0923 36.3399 12.4631C38.3863 12.8338 39.0999 13.6748 39.0999 14.2864C39.0999 14.898 37.7548 15.3911 36.3891 15.2994C35.0234 15.2076 34.1007 15.1388 33.9284 15.4599C33.7562 15.781 34.0022 16.2779 35.9011 16.4117C37.7999 16.5493 39.994 16.297 40.6747 14.0953C41.3555 11.8935 41.3801 8.07863 41.1382 5.33024C40.8962 2.58185 40.3631 1.0108 39.0425 0.414486C37.6522 -0.208584 34.1704 -0.311792 30.8813 1.41216C27.5922 3.13612 26.7761 4.87154 26.7761 4.87154Z" fill="#FF6868"/>
<path d="M33.588 2.25694C33.1615 1.74472 31.7877 1.76001 31.0536 2.55127C30.2743 3.39223 30.1021 6.59167 31.1028 6.77515C32.2347 6.98157 32.0296 5.25379 32.858 4.18731C33.6701 3.14376 34.0023 2.75769 33.588 2.25694Z" fill="#FCC9D2"/>
<path d="M19.8247 4.98239C19.8247 4.98239 15.2192 -0.0212809 9.95748 0.0551694C6.79143 0.10104 5.98761 1.80206 5.81536 2.5054C5.64312 3.20874 4.33077 10.2039 6.08194 13.9921C7.83311 17.7802 11.4667 16.7978 12.0367 16.6755C12.7667 16.5149 14.3211 16.018 14.1734 15.4943C14.0258 14.9706 8.86248 16.8551 8.81327 14.6992C8.76406 12.5433 12.4674 12.314 14.1734 12.2681C15.8795 12.2222 18.8036 12.5854 18.8036 12.5854C18.8036 12.5854 18.2909 9.9746 18.6313 8.11303C18.9717 6.25147 19.8247 4.98239 19.8247 4.98239Z" fill="#FF6868"/>
<path d="M8.5467 1.87086C7.89052 2.5054 7.61985 6.16355 8.03406 7.97924C8.44827 9.79494 8.81327 10.5671 9.6663 10.4104C10.3799 10.2766 10.8105 6.71399 11.1509 5.46021C11.5159 4.12233 12.4181 2.70035 12.0531 2.07728C11.4954 1.12165 9.23158 1.20957 8.5467 1.87086Z" fill="#FCC9D2"/>
</svg>
