<svg width="339" height="127" viewBox="0 0 339 127" fill="none" xmlns="http://www.w3.org/2000/svg">
<path d="M31.0822 100.492L30.616 99.9437L31.4087 99.2704C33.817 97.2246 34.1861 96.1762 31.467 92.9753L18.5187 77.7325L15.1296 82.7633L14.5979 82.3227C16.4808 79.4112 18.1017 75.8824 18.322 73.176L18.9392 72.9141L34.0887 90.7482C36.8079 93.9491 37.6277 93.9875 40.3104 91.7086L41.1031 91.0353L41.5692 91.584L31.0822 100.492Z" fill="#D5AF6F"/>
<path d="M60.0329 79.5744C55.9814 82.073 51.0265 82.497 48.6119 78.5817C46.5962 75.3132 47.8269 71.5936 50.2787 67.8728C46.1358 67.937 43.1714 67.3214 41.4077 64.4615C39.5181 61.3974 40.4939 57.0359 44.9881 54.2644C49.2779 51.6188 53.157 52.4222 55.0047 55.4183C56.7264 58.2101 55.3322 60.9027 53.357 64.3295C58.1866 64.3118 61.9578 64.7118 64.0995 68.1845C66.6821 72.3722 64.1865 77.0128 60.0329 79.5744ZM51.1387 76.5065C53.3223 80.0473 56.7741 80.6912 59.8382 78.8015C63.0046 76.8489 63.9186 73.6064 62.2809 70.9508C60.2652 67.6824 55.8811 67.6604 51.568 67.8296C51.4238 67.8245 51.2797 67.8194 51.1566 67.8483C49.7863 70.8082 49.5429 73.9189 51.1387 76.5065ZM43.4306 61.5692C45.0263 64.1567 48.145 64.4891 51.7455 64.3835L52.4452 64.375C53.8756 61.284 53.816 59.206 52.4092 56.9249C50.7925 54.3034 48.0426 53.2735 45.3529 54.9323C42.6973 56.57 42.0868 59.3902 43.4306 61.5692Z" fill="#D5AF6F"/>
<path d="M100.468 70.7093C97.989 71.4919 96.4794 70.9617 96.094 69.7411C95.8412 68.9401 96.1826 68.1612 97.0599 67.8842C98.7383 67.3544 99.7879 69.7496 101.848 69.0994C103.374 68.6177 103.87 66.8672 102.304 61.9084L94.7668 38.0298C93.4543 33.872 92.5731 33.6049 89.407 34.6043L89.1903 33.9177L99.7564 30.5824L99.9731 31.269C97.4556 32.0637 96.8111 32.8124 98.1235 36.9702L105.24 59.5137C107.058 65.2736 105.16 69.2282 100.468 70.7093Z" fill="#D5AF6F"/>
<path d="M128.738 53.3027C125.141 53.8617 122.326 52.68 121.497 47.344L119.789 36.3559L116.983 36.7921L116.878 36.1202C118.894 35.8069 121.264 34.386 121.766 32.4055L122.477 32.2949L124.646 46.2474C125.217 49.9233 127.193 51.4378 130.039 50.9955C132.134 50.6699 134.282 49.1217 135.89 46.9691L133.9 34.1629L130.975 34.6175L130.87 33.9455C132.965 33.6199 135.335 32.1991 135.876 30.2124L136.588 30.1018L139.002 45.6354C139.537 49.0741 140.063 49.5994 142.403 48.5071L142.666 49.1544L137.232 51.6991C136.693 51.0947 136.302 49.6173 136.068 48.1154L136.037 47.9177L136.004 47.9634C134.426 50.3136 131.663 52.8481 128.738 53.3027Z" fill="#D5AF6F"/>
<path d="M169.523 49.1707C171.722 49.2316 172.419 48.6107 172.542 44.1724L172.755 36.4953C172.855 32.8967 171.227 30.9709 168.389 30.8922C166.109 30.8291 163.475 32.0366 161.421 33.9404L161.147 43.8566C161.024 48.2949 161.326 48.9435 163.925 49.0155L163.905 49.7353L154.748 49.4815L154.768 48.7618C157.087 48.8261 157.745 48.204 157.868 43.7658L158.188 32.2102L155.269 32.1293L155.289 31.4096C157.408 31.4683 159.956 30.4985 160.848 28.6425L161.568 28.6624L161.45 32.9008L161.49 32.9019C163.629 30.8004 166.963 28.892 170.082 28.9784C173.601 29.0759 176.184 31.1483 176.034 36.5862L175.821 44.2632C175.698 48.7015 176 49.3502 178.639 49.4233L178.619 50.143L169.503 49.8904L169.523 49.1707Z" fill="#D5AF6F"/>
<path d="M224.678 62.2392C225.444 61.1383 225.228 60.3576 224.084 59.9974L209.775 55.4949L209.793 55.0391C221.593 48.856 227.692 45.1981 229.638 39.017C230.634 35.8501 229.984 32.5844 226.817 31.5879C223.383 30.5073 219.991 32.6267 216.799 36.906L216.134 36.487L220.844 28.4501L221.495 28.7807C221.004 29.6745 221.265 30.1762 221.952 30.3923C223.058 30.7405 224.692 30.0804 227.783 31.0529C232.323 32.4817 234.607 35.8842 233.31 40.005C231.641 45.3086 224.358 49.2648 213.895 53.7301L222.137 56.3235C225.8 57.4762 227.385 56.9687 229.859 53.6377L230.498 54.0064L225.241 62.5839L224.678 62.2392Z" fill="#D5AF6F"/>
<path d="M249.189 71.4267C244.455 68.9995 242.897 62.0426 247.113 53.8204C251.475 45.3133 258.349 43.0394 262.621 45.2293C266.821 47.3828 268.915 54.3451 264.608 62.7453C260.374 71.0032 253.852 73.8174 249.189 71.4267ZM249.554 70.7148C253.042 72.5033 257.373 68.7903 261.333 61.0664C265.348 53.2356 265.495 47.6019 262.256 45.9412C258.767 44.1528 254.421 47.633 250.406 55.4637C246.446 63.1877 246.101 68.9446 249.554 70.7148Z" fill="#D5AF6F"/>
<path d="M269.705 82.4867L270.129 81.9048L270.969 82.5172C273.523 84.3781 274.629 84.4908 277.102 81.0963L288.88 64.9318L283.194 62.8183L283.497 62.198C286.769 63.3449 290.58 64.0922 293.263 63.6711L293.662 64.2096L279.882 83.122C277.409 86.5165 277.564 87.3225 280.409 89.3953L281.25 90.0078L280.826 90.5897L269.705 82.4867Z" fill="#D5AF6F"/>
<path d="M295.296 104.21C294.24 103.172 294.256 101.616 295.714 100.133C298.041 97.7656 304.416 95.6184 314.409 93.3274L319.575 92.1239L312.387 85.057C309.649 82.3648 308.092 82.2366 304.404 84.2761L303.975 83.6292L312.417 78.5228L312.875 79.1412C312.088 79.7701 311.923 80.2807 312.978 81.3183L323.646 91.8065L323.536 92.2034L314.671 94.202C309.59 95.4331 303.072 97.3269 300.885 99.5517C299.062 101.406 299.698 102.984 298.492 104.211C297.539 105.181 296.237 105.135 295.296 104.21Z" fill="#D5AF6F"/>
</svg>
